<?xml version="1.0" encoding="utf-8"?>
<!-- Generator: Adobe Illustrator 28.0.0, SVG Export Plug-In . SVG Version: 6.00 Build 0)  -->
<svg version="1.1" id="Livello_1" xmlns="http://www.w3.org/2000/svg" xmlns:xlink="http://www.w3.org/1999/xlink" x="0px" y="0px"
	 viewBox="0 0 283.5 87.9" style="enable-background:new 0 0 283.5 87.9;" xml:space="preserve">
<style type="text/css">
	.st0{fill:#FFFFFF;}
</style>
<path class="st0" d="M32.2,74.4c9.7,0,14.8-6.2,14.8-13.5c0-7.1-4.6-13.7-14.2-13.7H12.7v27.2H32.2z M31.8,14.8H12.7V38h19.4
	c7.1,0,10.6-4.9,10.6-11.7S39,14.8,31.8,14.8 M57.4,61.8c0,11.3-8.6,22.2-23,22.2H2.3V5.2h29.6c13,0,21.3,7.8,21.3,20.1
	c0,6.9-2.5,13.8-10,16.7C52.5,44.1,57.4,53.2,57.4,61.8"/>
<rect x="62.8" y="30.6" class="st0" width="10" height="53.4"/>
<polygon class="st0" points="111.4,30.6 111.4,39.1 96.8,39.1 96.8,84 86.9,84 86.9,39.1 80.3,39.1 80.3,30.6 86.9,30.6 86.9,10.4 
	96.8,10.4 96.8,30.6 "/>
<path class="st0" d="M156.3,53c-1.3-9.2-7.8-14.4-16.6-14.4c-9,0-15.4,4.8-17,14.4H156.3z M166,61.6h-43.5C124,71.1,130.9,76,140,76
	c6.5,0,12.5-3,15.6-8.3l8.6,3.4c-4.6,9.3-14.2,14.3-24.5,14.3c-15.2,0-27.4-11.3-27.4-28.3c0-16.9,12.2-27.9,27.4-27.9
	c15.2,0,26.5,11,26.5,27.9C166.2,58.6,166.1,60.1,166,61.6"/>
<rect x="175.2" y="5.8" class="st0" width="18" height="78.8"/>
<path class="st0" d="M230.3,68.9c11.8,0,17.8-11.3,17.8-23.6c0-12.4-6.1-23.9-17.8-23.9h-13.2v47.5H230.3z M230.3,5.8
	c22.8,0,35.9,17.2,35.9,39.6c0,22.3-13.2,39.2-35.9,39.2h-31.1V5.8H230.3z"/>
<path class="st0" d="M271.9,10.1h0.9c1,0,1.8-0.3,1.8-1.2c0-0.7-0.5-1.2-1.7-1.2c-0.5,0-0.8,0-1,0.1V10.1z M271.9,14.5h-1.8V6.6
	c0.7-0.1,1.7-0.2,3-0.2c1.5,0,2.2,0.2,2.7,0.6c0.4,0.3,0.8,1,0.8,1.7c0,0.9-0.7,1.5-1.6,1.8v0.1c0.8,0.3,1.2,0.9,1.4,1.9
	c0.2,1.2,0.4,1.7,0.6,2h-2c-0.2-0.3-0.4-1-0.6-1.9c-0.1-0.9-0.6-1.2-1.6-1.2h-0.9V14.5z M267.1,10.4c0,3.5,2.6,6.3,6.1,6.3
	c3.5,0,6-2.8,6-6.2c0-3.5-2.5-6.3-6-6.3C269.6,4.1,267.1,6.9,267.1,10.4 M281.2,10.4c0,4.5-3.5,8-8.1,8c-4.5,0-8.1-3.5-8.1-8
	c0-4.4,3.6-7.9,8.1-7.9C277.7,2.5,281.2,6,281.2,10.4"/>
</svg>
