<?xml version="1.0" encoding="utf-8"?>
<!-- Generator: Adobe Illustrator 28.0.0, SVG Export Plug-In . SVG Version: 6.00 Build 0)  -->
<svg version="1.1" id="Livello_1" xmlns="http://www.w3.org/2000/svg" xmlns:xlink="http://www.w3.org/1999/xlink" x="0px" y="0px"
	 viewBox="0 0 283.5 87.9" style="enable-background:new 0 0 283.5 87.9;" xml:space="preserve">
<style type="text/css">
	.st0{fill:url(#SVGID_1_);}
	.st1{fill:url(#SVGID_00000075843533621202444100000011469902233170773662_);}
	.st2{fill:url(#SVGID_00000047020348744318889040000009449778355435862915_);}
	.st3{fill:url(#SVGID_00000075851347960206966280000009071158570707775900_);}
	.st4{fill:url(#SVGID_00000054234303301290021360000013888082801669515916_);}
	.st5{fill:url(#SVGID_00000021100239458954772630000002381615593543836567_);}
	.st6{fill:url(#SVGID_00000130627849204463365000000008983508557165884307_);}
</style>
<linearGradient id="SVGID_1_" gradientUnits="userSpaceOnUse" x1="-122.928" y1="12.9961" x2="316.4272" y2="110.9673">
	<stop  offset="0" style="stop-color:#332A74"/>
	<stop  offset="0.2956" style="stop-color:#A34B97"/>
	<stop  offset="0.5139" style="stop-color:#302B7A"/>
	<stop  offset="0.7983" style="stop-color:#42BCED"/>
	<stop  offset="1" style="stop-color:#3B4F9E"/>
</linearGradient>
<path class="st0" d="M32.2,74.4c9.7,0,14.8-6.2,14.8-13.5c0-7.1-4.6-13.7-14.2-13.7H12.7v27.2H32.2z M31.8,14.8H12.7V38h19.4
	c7.1,0,10.6-4.9,10.6-11.7S39,14.8,31.8,14.8 M57.4,61.8c0,11.3-8.6,22.2-23,22.2H2.3V5.2h29.6c13,0,21.3,7.8,21.3,20.1
	c0,6.9-2.5,13.8-10,16.7C52.5,44.1,57.4,53.2,57.4,61.8"/>
<linearGradient id="SVGID_00000104677933559291380680000015563942155611206317_" gradientUnits="userSpaceOnUse" x1="-123.2988" y1="14.6587" x2="316.0565" y2="112.6298">
	<stop  offset="0" style="stop-color:#332A74"/>
	<stop  offset="0.2956" style="stop-color:#A34B97"/>
	<stop  offset="0.5139" style="stop-color:#302B7A"/>
	<stop  offset="0.7983" style="stop-color:#42BCED"/>
	<stop  offset="1" style="stop-color:#3B4F9E"/>
</linearGradient>
<rect x="62.8" y="30.6" style="fill:url(#SVGID_00000104677933559291380680000015563942155611206317_);" width="10" height="53.4"/>
<linearGradient id="SVGID_00000168076741895553962090000005067653745011420592_" gradientUnits="userSpaceOnUse" x1="-120.0221" y1="-3.558615e-02" x2="319.3331" y2="97.9356">
	<stop  offset="0" style="stop-color:#332A74"/>
	<stop  offset="0.2956" style="stop-color:#A34B97"/>
	<stop  offset="0.5139" style="stop-color:#302B7A"/>
	<stop  offset="0.7983" style="stop-color:#42BCED"/>
	<stop  offset="1" style="stop-color:#3B4F9E"/>
</linearGradient>
<polygon style="fill:url(#SVGID_00000168076741895553962090000005067653745011420592_);" points="111.4,30.6 111.4,39.1 96.8,39.1 
	96.8,84 86.9,84 86.9,39.1 80.3,39.1 80.3,30.6 86.9,30.6 86.9,10.4 96.8,10.4 96.8,30.6 "/>
<linearGradient id="SVGID_00000176032065388505132180000014958877345537132177_" gradientUnits="userSpaceOnUse" x1="-119.8926" y1="-0.6164" x2="319.4626" y2="97.3547">
	<stop  offset="0" style="stop-color:#332A74"/>
	<stop  offset="0.2956" style="stop-color:#A34B97"/>
	<stop  offset="0.5139" style="stop-color:#302B7A"/>
	<stop  offset="0.7983" style="stop-color:#42BCED"/>
	<stop  offset="1" style="stop-color:#3B4F9E"/>
</linearGradient>
<path style="fill:url(#SVGID_00000176032065388505132180000014958877345537132177_);" d="M156.3,53c-1.3-9.2-7.8-14.4-16.6-14.4
	c-9,0-15.4,4.8-17,14.4H156.3z M166,61.6h-43.5C124,71.1,130.9,76,140,76c6.5,0,12.5-3,15.6-8.3l8.6,3.4
	c-4.6,9.3-14.2,14.3-24.5,14.3c-15.2,0-27.4-11.3-27.4-28.3c0-16.9,12.2-27.9,27.4-27.9c15.2,0,26.5,11,26.5,27.9
	C166.2,58.6,166.1,60.1,166,61.6"/>
<linearGradient id="SVGID_00000085949943032266900550000016599407013218821002_" gradientUnits="userSpaceOnUse" x1="-115.2164" y1="-21.5867" x2="324.1388" y2="76.3845">
	<stop  offset="0" style="stop-color:#332A74"/>
	<stop  offset="0.2956" style="stop-color:#A34B97"/>
	<stop  offset="0.5139" style="stop-color:#302B7A"/>
	<stop  offset="0.7983" style="stop-color:#42BCED"/>
	<stop  offset="1" style="stop-color:#3B4F9E"/>
</linearGradient>
<rect x="175.2" y="5.8" style="fill:url(#SVGID_00000085949943032266900550000016599407013218821002_);" width="18" height="78.8"/>
<linearGradient id="SVGID_00000057860651637434810510000004831270225287575996_" gradientUnits="userSpaceOnUse" x1="-113.66" y1="-28.5668" x2="325.6953" y2="69.4044">
	<stop  offset="0" style="stop-color:#332A74"/>
	<stop  offset="0.2956" style="stop-color:#A34B97"/>
	<stop  offset="0.5139" style="stop-color:#302B7A"/>
	<stop  offset="0.7983" style="stop-color:#42BCED"/>
	<stop  offset="1" style="stop-color:#3B4F9E"/>
</linearGradient>
<path style="fill:url(#SVGID_00000057860651637434810510000004831270225287575996_);" d="M230.3,68.9c11.8,0,17.8-11.3,17.8-23.6
	c0-12.4-6.1-23.9-17.8-23.9h-13.2v47.5H230.3z M230.3,5.8c22.8,0,35.9,17.2,35.9,39.6c0,22.3-13.2,39.2-35.9,39.2h-31.1V5.8H230.3z"
	/>
<linearGradient id="SVGID_00000128475930377553645170000010457212648140571275_" gradientUnits="userSpaceOnUse" x1="-103.6227" y1="-73.5794" x2="335.7325" y2="24.3918">
	<stop  offset="0" style="stop-color:#332A74"/>
	<stop  offset="0.2956" style="stop-color:#A34B97"/>
	<stop  offset="0.5139" style="stop-color:#302B7A"/>
	<stop  offset="0.7983" style="stop-color:#42BCED"/>
	<stop  offset="1" style="stop-color:#3B4F9E"/>
</linearGradient>
<path style="fill:url(#SVGID_00000128475930377553645170000010457212648140571275_);" d="M271.9,10.1h0.9c1,0,1.8-0.3,1.8-1.2
	c0-0.7-0.5-1.2-1.7-1.2c-0.5,0-0.8,0-1,0.1V10.1z M271.9,14.5h-1.8V6.6c0.7-0.1,1.7-0.2,3-0.2c1.5,0,2.2,0.2,2.7,0.6
	c0.4,0.3,0.8,1,0.8,1.7c0,0.9-0.7,1.5-1.6,1.8v0.1c0.8,0.3,1.2,0.9,1.4,1.9c0.2,1.2,0.4,1.7,0.6,2h-2c-0.2-0.3-0.4-1-0.6-1.9
	c-0.1-0.9-0.6-1.2-1.6-1.2h-0.9V14.5z M267.1,10.4c0,3.5,2.6,6.3,6.1,6.3c3.5,0,6-2.8,6-6.2c0-3.5-2.5-6.3-6-6.3
	C269.6,4.1,267.1,6.9,267.1,10.4 M281.2,10.4c0,4.5-3.5,8-8.1,8c-4.5,0-8.1-3.5-8.1-8c0-4.4,3.6-7.9,8.1-7.9
	C277.7,2.5,281.2,6,281.2,10.4"/>
</svg>
