<?xml version="1.0" encoding="utf-8"?>
<!-- Generator: Adobe Illustrator 28.0.0, SVG Export Plug-In . SVG Version: 6.00 Build 0)  -->
<svg version="1.1" id="Livello_2_00000167376521237045979630000006386211459277243011_"
	 xmlns="http://www.w3.org/2000/svg" xmlns:xlink="http://www.w3.org/1999/xlink" x="0px" y="0px" viewBox="0 0 191.9 42.9"
	 style="enable-background:new 0 0 191.9 42.9;" xml:space="preserve">
<style type="text/css">
	.st0{fill:#FFFFFF;}
</style>
<g id="Livello_2-2">
	<path class="st0" d="M187.1,4.1h0.4c0.5,0,0.9-0.2,0.9-0.6c0-0.4-0.3-0.6-0.9-0.6c-0.2,0-0.4,0-0.5,0V4.1z M187,6.4h-0.9V2.3
		c0.4-0.1,0.9-0.1,1.6-0.1c0.8,0,1.1,0.1,1.4,0.3c0.2,0.2,0.4,0.5,0.4,0.9c0,0.5-0.4,0.8-0.8,0.9v0.1c0.4,0.2,0.6,0.4,0.7,1
		c0.1,0.6,0.2,0.9,0.3,1h-1c-0.1-0.2-0.2-0.5-0.3-1c-0.1-0.4-0.3-0.7-0.8-0.7H187C187,4.7,187,6.4,187,6.4z M184.5,4.2
		c0,1.8,1.3,3.2,3.2,3.2s3.1-1.4,3.1-3.2S189.5,1,187.7,1S184.5,2.4,184.5,4.2 M191.8,4.2c0,2.3-1.8,4.1-4.2,4.1s-4.2-1.8-4.2-4.1
		s1.9-4.1,4.2-4.1S191.8,1.9,191.8,4.2"/>
	<path class="st0" d="M0,33.8h4.9c0.1,2.4,2.2,4.4,5.6,4.4s5.7-1.8,5.7-4.1c0-2.1-1.6-3.2-3.9-3.7l-3.9-0.9C3.8,28.3,1,26,1,21.5
		s4-8.4,9.7-8.4c4.8,0,9.8,2.6,9.8,8.3h-5.1c-0.1-2.2-2.3-3.6-4.6-3.6c-2.7,0-4.6,1.8-4.6,3.9c0,1.9,1.8,3,3.6,3.4l4.2,1
		c5.9,1.5,7.4,5,7.4,8.2c0,5.3-5.1,8.6-11,8.6C5.5,42.9,0.2,39.7,0,33.8z"/>
	<path class="st0" d="M21.9,27.7c0-9,7.1-14.9,15.2-14.9c4.4,0,8.3,1.8,10.8,4.5l-3.3,3.5c-1.8-1.8-4.3-3-7.3-3
		c-5.6,0-10.1,4.1-10.1,9.9s4.5,10,10.1,10c3,0,5.5-1.2,7.3-3l3.3,3.5c-2.5,2.8-6.4,4.5-10.8,4.5C29,42.7,21.9,36.7,21.9,27.7z"/>
	<path class="st0" d="M70.2,13.8h5.3v28.3h-5.3v-5c-1.9,3.4-5.8,5.8-10.4,5.8c-7.4,0-13.9-6.2-13.9-14.9s6.1-14.9,14.1-14.9
		c4.2,0,8.2,1.8,10.1,5.2L70.2,13.8L70.2,13.8z M70.2,27.9c0-5.8-4.9-9.9-9.7-9.9c-5.2,0-9.3,4.5-9.3,9.9s4.1,10,9.3,10
		S70.2,33.7,70.2,27.9L70.2,27.9z"/>
	<path class="st0" d="M104.3,25.5v16.4H99V25.8c0-4.7-2.9-7.8-6.9-7.8s-8.7,2.4-8.7,8.5v15.4h-5.3V13.6h5.3v4.3c1.7-3.5,6.3-5,9.4-5
		C99.9,12.9,104.4,17.6,104.3,25.5z"/>
	<path class="st0" d="M165.3,0c12.1,0,19.1,9.1,19.1,21s-7,20.8-19.1,20.8h-16.5V0H165.3z M165.3,33.5c6.2,0,9.5-6,9.5-12.5
		s-3.2-12.7-9.5-12.7h-7v25.2H165.3z"/>
	<polygon class="st0" points="138.5,0 138.5,0 126,26.7 113.5,0 113.4,0 106.1,0 106.1,41.8 113.5,41.8 113.5,17.9 122.4,37 
		129.5,37 138.5,17.9 138.5,41.8 145.9,41.8 145.9,0 	"/>
</g>
</svg>
