<svg width="195" height="51" viewBox="0 0 195 51" fill="none" xmlns="http://www.w3.org/2000/svg">
<path d="M189.34 4.78533H189.873C190.489 4.78533 190.986 4.58347 190.986 4.07288C190.986 3.63353 190.666 3.33667 189.956 3.33667C189.66 3.33667 189.458 3.37229 189.34 3.39604V4.78533ZM189.304 7.51641H188.191V2.69546C188.629 2.61234 189.245 2.55297 190.039 2.55297C190.95 2.55297 191.353 2.69546 191.708 2.9092C191.969 3.11106 192.182 3.50291 192.182 3.96601C192.182 4.50035 191.767 4.90408 191.187 5.08219V5.14156C191.661 5.31967 191.921 5.6759 192.063 6.31711C192.205 7.05332 192.3 7.35017 192.419 7.52829H191.211C191.069 7.35017 190.974 6.91083 190.832 6.35274C190.749 5.81839 190.453 5.58091 189.837 5.58091H189.304V7.52829V7.51641ZM186.344 4.98719C186.344 7.13644 187.931 8.84633 190.098 8.84633C192.265 8.84633 193.769 7.13644 193.769 5.02282C193.769 2.9092 192.217 1.13993 190.074 1.13993C187.931 1.13993 186.344 2.87357 186.344 4.99907M195 4.99907C195 7.73015 192.857 9.8794 190.074 9.8794C187.291 9.8794 185.113 7.73015 185.113 4.99907C185.113 2.26799 187.315 0.178114 190.074 0.178114C192.833 0.178114 195 2.32736 195 4.99907Z" fill="white"/>
<path d="M0 40.1588H5.87321C5.94426 43.068 8.4901 45.4666 12.6227 45.4666C16.7552 45.4666 19.4432 43.353 19.4432 40.5863C19.4432 38.0452 17.4894 36.7271 14.8014 36.1453L10.1597 35.0529C4.49964 33.5211 1.23148 30.7544 1.23148 25.3041C1.23148 19.8538 6.0153 15.2584 12.8358 15.2584C18.5669 15.2584 24.523 18.3101 24.523 25.1497H18.4248C18.3538 22.5255 15.6658 20.78 12.9779 20.78C9.70974 20.78 7.54281 22.8936 7.54281 25.5059C7.54281 27.8333 9.72158 29.0682 11.9004 29.5788L16.9092 30.8137C23.9428 32.5593 25.7663 36.7746 25.7663 40.6338C25.7663 46.9627 19.6681 50.9644 12.6345 50.9644C6.53631 50.9644 0.296029 47.1052 0.0118411 40.1232L0 40.1588Z" fill="white"/>
<path d="M26.6544 33.1055C26.6544 22.3355 35.1445 15.2822 44.8661 15.2822C50.1591 15.2822 54.8008 17.3958 57.7848 20.6612L53.7943 24.8054C51.6866 22.6205 48.6434 21.2431 45.0911 21.2431C38.4127 21.2431 33.0486 26.1234 33.0486 33.1055C33.0486 40.0875 38.4127 45.0391 45.0911 45.0391C48.6434 45.0391 51.6984 43.6617 53.7943 41.4768L57.7848 45.6209C54.8127 48.9695 50.1709 51 44.8661 51C35.1445 51 26.6544 43.8754 26.6544 33.1055Z" fill="white"/>
<path d="M85.4457 16.149H91.757V50.1213H85.4457V44.0773C83.1959 48.1502 78.4831 50.9881 73.0362 50.9881C64.179 50.9881 56.4231 43.4955 56.4231 33.0936C56.4231 22.6917 63.7527 15.2703 73.3322 15.2703C78.4121 15.2703 83.1959 17.4552 85.4457 21.4568V16.149ZM85.4457 33.1055C85.4457 26.1234 79.5725 21.2431 73.9124 21.2431C67.7432 21.2431 62.8173 26.7052 62.8173 33.1055C62.8173 39.5057 67.755 45.0391 73.9953 45.0391C80.2356 45.0391 85.4576 40.0163 85.4576 33.1055H85.4457Z" fill="white"/>
<path d="M125.931 30.4813V50.1213H119.619V30.8375C119.619 25.1616 116.138 21.5281 111.425 21.5281C106.712 21.5281 101.052 24.366 101.052 31.7162V50.1213H94.741V16.149H101.052V21.3143C103.089 17.1702 108.595 15.2703 112.301 15.2703C120.72 15.2703 126.013 20.9462 125.942 30.4813H125.931Z" fill="white"/>
<path d="M128.619 50.1332V0H140.01V50.1332H128.619Z" fill="white"/>
<path d="M163.23 0C177.665 0 186.013 10.9125 186.013 25.1735C186.013 39.4345 177.665 50.1332 163.23 50.1332H143.491V0H163.23ZM163.23 40.1588C170.702 40.1588 174.55 32.9511 174.55 25.1735C174.55 17.3958 170.702 9.96251 163.23 9.96251H154.882V40.1588H163.23Z" fill="white"/>
</svg>
